# Blender 4.0.0
# www.blender.org
o SimpleTreeMesh
v 0.023939 0.616908 -0.040523
v 0.056181 0.986068 -0.053929
v 0.131819 0.868087 -0.116792
v 0.118476 0.715170 -0.111236
v 0.086487 0.971189 0.049299
v 0.174668 0.847062 0.029201
v 0.148760 0.700311 -0.008008
v 0.036104 0.940336 0.140447
v 0.103428 0.803414 0.158084
v 0.098377 0.669438 0.083140
v -0.065420 0.911567 0.166102
v -0.040165 0.762733 0.194366
v -0.003146 0.640668 0.108795
v -0.064136 1.000000 0.040523
v -0.158652 0.901738 0.111236
v -0.172016 0.748821 0.116792
v -0.096378 0.630840 0.053929
v -0.188936 0.916618 0.008008
v -0.214843 0.769867 -0.029201
v -0.126663 0.645719 -0.049299
v -0.138574 0.947470 -0.083119
v -0.143604 0.813515 -0.158084
v -0.076301 0.676593 -0.140426
v -0.037030 0.976240 -0.108774
v -0.000011 0.854196 -0.194366
v 0.025244 0.705362 -0.166081
v -0.176267 0.498043 -0.025097
v -0.320282 0.702584 -0.065841
v -0.233132 0.663313 -0.109258
v -0.173468 0.578584 -0.092358
v -0.291807 0.722241 -0.000179
v -0.192872 0.691115 -0.016363
v -0.145014 0.598241 -0.026696
v -0.299468 0.698249 0.069650
v -0.203689 0.657189 0.082383
v -0.152654 0.574249 0.043154
v -0.338760 0.644646 0.102734
v -0.259271 0.581383 0.129167
v -0.191967 0.520646 0.076216
v -0.383881 0.673394 0.012406
v -0.386680 0.592853 0.079689
v -0.327016 0.508124 0.096568
v -0.239867 0.468853 0.053172
v -0.415155 0.573196 0.014006
v -0.367297 0.480322 0.003694
v -0.268341 0.449196 -0.012512
v -0.407494 0.597188 -0.055823
v -0.356459 0.514248 -0.095073
v -0.260681 0.473188 -0.082341
v -0.368202 0.650770 -0.088907
v -0.300899 0.590054 -0.141857
v -0.221389 0.526791 -0.115424
v 0.169175 0.540471 -0.014279
v 0.415155 0.632882 -0.010176
v 0.367929 0.541249 -0.045153
v 0.266026 0.502967 -0.046858
v 0.405874 0.622148 0.065483
v 0.354796 0.526097 0.061842
v 0.256745 0.492255 0.028801
v 0.363383 0.655442 0.120370
v 0.294711 0.573154 0.139437
v 0.214254 0.525528 0.083667
v 0.312558 0.713212 0.122327
v 0.222841 0.654874 0.142215
v 0.163450 0.583319 0.085624
v 0.380051 0.724177 0.037619
v 0.283199 0.761659 0.070197
v 0.181297 0.723377 0.068514
v 0.134071 0.631745 0.033515
v 0.292480 0.772371 -0.005461
v 0.194429 0.738530 -0.038482
v 0.143352 0.642478 -0.042144
v 0.334971 0.739098 -0.060327
v 0.254514 0.691472 -0.116098
v 0.185843 0.609184 -0.097030
v 0.385775 0.681307 -0.062284
v 0.326385 0.609753 -0.118855
v 0.236668 0.551414 -0.098967
v -0.001736 0.467779 -0.009081
v 0.093916 0.539502 -0.074785
v 0.088191 0.552382 -0.021351
v -0.001147 0.700564 -0.021098
v 0.017541 0.000000 -0.053066
v -0.064136 0.445702 -0.046016
v -0.042501 0.475229 -0.086571
v 0.014153 0.458014 -0.102292
v 0.041197 0.272077 -0.052519
v -0.012575 0.271361 -0.001294
v -0.041702 0.410914 -0.055024
v -0.000284 0.611142 -0.022024
v -0.001189 0.620296 -0.062411
v 0.041365 0.625053 -0.062158
v 0.043743 0.618634 -0.023097
v 0.008534 0.687095 -0.003420
v -0.028948 0.013764 -0.054013
v 0.015037 0.019720 -0.099219
v 0.059990 0.023403 -0.052203
v 0.014616 0.018604 -0.008387
v -0.063316 0.263553 -0.055045
v -0.009986 0.270414 -0.106269
v 0.065820 0.513217 -0.057907
v 0.036461 0.519993 -0.019478
v -0.009292 0.519867 -0.051825
v 0.023287 0.521025 -0.095242
v -0.170269 0.471273 -0.026317
v -0.167281 0.487120 -0.044375
v -0.156800 0.502778 -0.029053
v -0.158273 0.486173 -0.011565
v 0.140405 0.517068 -0.018026
v 0.097746 0.560464 -0.041007
v 0.151833 0.503662 -0.028822
v 0.144888 0.533526 -0.031347
v 0.152338 0.517468 -0.044438
v 0.020572 0.604197 -0.082025
v 0.093663 0.558738 -0.065210
v -0.028654 0.423226 -0.093537
v -0.076490 0.456962 -0.065588
v -0.030884 0.413377 -0.018383
v -0.021161 0.025192 -0.088254
v 0.051046 0.034157 -0.088507
v 0.049404 0.034178 -0.016152
v 0.061927 0.516836 -0.030926
v 0.156463 0.508481 -0.038713
v -0.022529 0.026370 -0.017773
v -0.016952 0.685937 -0.017899
v -0.005440 0.695008 -0.041702
v 0.019120 0.698039 -0.028675
v -0.258681 0.556171 0.002094
v -0.252410 0.559243 0.013943
v 0.252683 0.607101 0.032231
v 0.256472 0.611478 0.019562
v -0.057381 0.452100 -0.020825
v -0.164334 0.474430 -0.014637
v -0.025728 0.505851 -0.080636
v -0.049720 0.270562 -0.094147
v 0.029095 0.271193 -0.092169
v 0.027180 0.271572 -0.013501
v 0.053508 0.520351 -0.092001
v 0.039976 0.412198 -0.016742
v 0.021961 0.605859 -0.008429
v -0.011964 0.615624 -0.039513
v 0.054666 0.616908 -0.042354
v -0.051635 0.271130 -0.015311
v -0.013101 0.504735 -0.019036
v 0.003967 0.527338 -0.024213
v -0.005945 0.528664 -0.082698
v -0.171658 0.475271 -0.039176
v -0.163261 0.500168 -0.040271
v -0.155179 0.498611 -0.016447
v 0.092127 0.516479 -0.064915
v 0.145814 0.506798 -0.019709
v 0.141584 0.529843 -0.021245
v 0.149034 0.529085 -0.041575
vn 0.5116 -0.0758 -0.8559
vn 0.5115 -0.0757 -0.8559
vn -0.0105 0.9872 -0.1590
vn 0.3898 -0.7547 -0.5277
vn 0.3547 0.6066 -0.7115
vn 0.3548 0.6066 -0.7115
vn 0.5827 -0.7626 -0.2807
vn 0.7947 0.5886 -0.1485
vn 0.9516 -0.0937 -0.2927
vn 0.1822 0.9793 0.0877
vn 0.1509 0.9080 0.3908
vn 0.5514 -0.8339 0.0223
vn 0.7232 0.4257 0.5439
vn 0.8801 -0.2567 0.3995
vn 0.3390 -0.4690 0.8156
vn 0.3390 -0.4689 0.8156
vn -0.0861 0.8150 0.5730
vn 0.3144 -0.9270 0.2045
vn 0.1821 0.2132 0.9599
vn -0.3547 -0.6065 0.7116
vn -0.3548 -0.6065 0.7115
vn -0.3900 0.7547 0.5275
vn 0.0105 -0.9872 0.1590
vn -0.5116 0.0758 0.8559
vn -0.5116 0.0757 0.8559
vn -0.7948 -0.5885 0.1483
vn -0.7947 -0.5885 0.1483
vn -0.5827 0.7626 0.2809
vn -0.1822 -0.9793 -0.0877
vn -0.9515 0.0936 0.2929
vn -0.9516 0.0938 0.2927
vn -0.7232 -0.4256 -0.5439
vn -0.5514 0.8340 -0.0224
vn -0.1509 -0.9079 -0.3910
vn -0.8801 0.2566 -0.3995
vn -0.8801 0.2567 -0.3995
vn -0.1821 -0.2133 -0.9599
vn -0.3143 0.9270 -0.2046
vn 0.0861 -0.8149 -0.5732
vn -0.3390 0.4691 -0.8155
vn -0.3389 0.4691 -0.8155
vn 0.3669 0.0734 -0.9274
vn 0.3668 0.0734 -0.9274
vn 0.3670 0.0735 -0.9273
vn -0.6484 0.7155 -0.2601
vn 0.7327 -0.4510 -0.5096
vn -0.1743 0.5304 -0.8296
vn -0.1742 0.5304 -0.8296
vn 0.9072 -0.2879 -0.3069
vn 0.2239 0.9028 -0.3673
vn 0.2239 0.9028 -0.3672
vn 0.7649 0.4459 -0.4649
vn -0.4740 0.8787 -0.0575
vn -0.4265 0.8688 0.2517
vn 0.9546 -0.2977 0.0021
vn 0.3323 0.8802 0.3388
vn 0.8733 0.4233 0.2410
vn 0.8733 0.4234 0.2409
vn 0.6285 0.0188 0.7775
vn 0.6285 0.0189 0.7775
vn 0.6287 0.0189 0.7774
vn -0.5337 0.6916 0.4867
vn 0.8475 -0.4748 0.2372
vn 0.0877 0.4758 0.8751
vn 0.0877 0.4758 0.8752
vn 0.1742 -0.5303 0.8297
vn -0.7327 0.4512 0.5096
vn 0.6485 -0.7154 0.2601
vn -0.3667 -0.0734 0.9274
vn -0.3668 -0.0734 0.9274
vn -0.2239 -0.9028 0.3673
vn -0.2239 -0.9028 0.3672
vn -0.9071 0.2880 0.3070
vn 0.4740 -0.8787 0.0575
vn -0.7648 -0.4458 0.4651
vn -0.7648 -0.4459 0.4652
vn -0.3323 -0.8802 -0.3388
vn -0.3323 -0.8802 -0.3389
vn -0.9546 0.2979 -0.0024
vn 0.4265 -0.8688 -0.2517
vn -0.8733 -0.4232 -0.2412
vn -0.0877 -0.4759 -0.8751
vn -0.8474 0.4750 -0.2372
vn 0.5337 -0.6916 -0.4867
vn -0.6287 -0.0190 -0.7774
vn 0.2506 -0.6346 -0.7311
vn 0.2506 -0.6345 -0.7311
vn 0.9023 0.4125 -0.1253
vn -0.4506 -0.7663 -0.4581
vn 0.7805 -0.1729 -0.6007
vn 0.7805 -0.1730 -0.6007
vn -0.4066 -0.8964 -0.1768
vn 0.8815 -0.4703 0.0415
vn 0.8816 -0.4702 0.0416
vn 0.3516 -0.9319 -0.0888
vn 0.9466 0.2822 0.1561
vn 0.8327 0.3318 0.4433
vn -0.5205 -0.8467 0.1104
vn 0.6213 -0.3569 0.6975
vn 0.6213 -0.3569 0.6976
vn 0.0914 -0.8185 0.5672
vn -0.3776 -0.3609 0.8527
vn -0.3774 -0.3609 0.8528
vn 0.6271 0.5324 0.5686
vn -0.7259 -0.6462 0.2355
vn 0.1524 0.1007 0.9832
vn 0.1524 0.1006 0.9832
vn -0.7806 0.1728 0.6007
vn 0.4506 0.7661 0.4582
vn -0.9023 -0.4126 0.1253
vn -0.2506 0.6347 0.7310
vn -0.2506 0.6346 0.7311
vn -0.8815 0.4703 -0.0415
vn -0.8816 0.4702 -0.0414
vn 0.4064 0.8964 0.1768
vn -0.9465 -0.2823 -0.1562
vn -0.3516 0.9319 0.0888
vn -0.6214 0.3570 -0.6975
vn -0.6213 0.3570 -0.6975
vn 0.5204 0.8468 -0.1105
vn -0.8327 -0.3319 -0.4433
vn -0.0915 0.8185 -0.5671
vn -0.0915 0.8186 -0.5671
vn -0.1523 -0.1009 -0.9832
vn -0.1524 -0.1007 -0.9832
vn 0.7259 0.6461 -0.2357
vn -0.6273 -0.5322 -0.5686
vn 0.3776 0.3608 -0.8528
vn 0.1039 -0.1096 0.9885
vn -0.9568 0.1403 0.2545
vn -0.9429 0.1383 -0.3030
vn -0.3607 0.1349 -0.9229
vn -0.5666 0.2060 -0.7978
vn -0.0920 0.9802 -0.1754
vn 0.2159 0.0280 0.9760
vn 0.2221 0.0292 0.9746
vn 0.2216 0.0320 0.9746
vn -0.9937 -0.0134 -0.1115
vn -0.8895 -0.0826 0.4495
vn 0.5076 -0.3725 -0.7769
vn -0.0350 0.9474 0.3182
vn -0.0413 0.9090 0.4147
vn -0.1616 0.9205 -0.3557
vn -0.6037 -0.7936 -0.0758
vn -0.8114 -0.4181 -0.4084
vn 0.6538 -0.6247 0.4268
vn 0.7847 0.5947 -0.1748
vn 0.4140 0.3766 -0.8287
vn 0.8403 0.3028 0.4498
vn 0.5428 0.0380 0.8390
vn -0.4827 -0.1551 0.8620
vn -0.7216 -0.0546 0.6901
vn -0.6739 -0.0531 0.7370
vn -0.5293 -0.0490 0.8470
vn 0.0193 -0.9317 -0.3628
vn 0.3016 -0.3958 -0.8674
vn 0.5141 0.8431 -0.1577
vn 0.5149 0.8441 -0.1493
vn 0.5144 0.8434 -0.1549
vn -0.1764 -0.1548 0.9721
vn 0.3167 -0.4582 0.8305
vn 0.1088 0.1595 -0.9812
vn -0.9068 0.1354 -0.3991
vn -0.2760 0.3660 -0.8887
vn -0.0655 0.2407 0.9684
vn 0.0037 0.3477 0.9376
vn 0.0151 0.2697 0.9628
vn 0.0012 0.3651 0.9310
vn 0.0609 -0.9724 -0.2255
vn -0.0625 -0.4293 0.9010
vn -0.0052 -0.2761 0.9611
vn 0.0031 -0.2533 0.9674
vn -0.3100 -0.2982 -0.9028
vn -0.3275 -0.3761 -0.8668
vn -0.3071 -0.2861 -0.9076
vn -0.1645 -0.9307 0.3267
vn -0.1785 -0.9400 0.2907
vn -0.1798 -0.9408 0.2875
vn -0.2748 0.3256 -0.9047
vn -0.2776 -0.9004 -0.3349
vn -0.2562 -0.9270 -0.2739
vn -0.2520 -0.9315 -0.2624
vn -0.2740 -0.8933 0.3564
vn -0.2765 -0.8935 0.3538
vn 0.2830 0.8311 0.4787
vn 0.0214 0.9641 -0.2647
vn -0.6838 0.7277 -0.0541
vn -0.4156 0.5994 0.6841
vn -0.2527 -0.8965 -0.3639
vn -0.2581 -0.8973 -0.3580
vn 0.4477 -0.8168 -0.3639
vn 0.4478 -0.8168 -0.3639
vn 0.4388 -0.8175 -0.3731
vn 0.4446 -0.8153 0.3711
vn 0.4420 -0.8155 0.3735
vn -0.7807 -0.5511 0.2948
vn -0.7826 -0.5396 0.3105
vn -0.7766 -0.5704 0.2674
vn 0.6250 0.5155 0.5862
vn 0.5602 0.5048 0.6567
vn 0.5364 0.5000 0.6799
vn -0.2506 0.2181 -0.9432
vn -0.2673 0.2036 -0.9419
vn -0.1768 0.2798 -0.9436
vn -0.5163 -0.0228 -0.8561
vn -0.2489 0.0636 -0.9664
vn 0.5031 0.4312 -0.7490
vn 0.7326 0.5931 -0.3338
vn 0.7529 0.6057 -0.2572
vn 0.1082 0.0950 -0.9896
vn 0.3348 -0.0243 -0.9420
vn 0.2982 -0.0278 -0.9541
vn 0.2945 -0.0282 -0.9552
vn 0.2899 0.2246 -0.9303
vn 0.9696 -0.1809 0.1648
vn 0.4134 0.0369 0.9098
vn -0.1880 -0.0668 0.9799
vn -0.9509 0.1323 -0.2799
vn -0.9516 0.1447 0.2712
vn -0.2456 0.0506 -0.9680
vn -0.2836 0.0452 -0.9579
vn -0.2914 0.0440 -0.9556
vn 0.9363 -0.0792 0.3421
vn 0.9268 -0.0853 0.3658
vn 0.9386 -0.0777 0.3362
vn 0.9327 -0.0922 -0.3487
vn 0.9501 -0.1024 -0.2948
vn 0.9304 -0.0909 -0.3550
vn -0.3452 0.0681 0.9361
vn -0.3942 0.0595 0.9171
vn -0.3373 0.0695 0.9388
vn 0.2817 0.0081 0.9595
vn 0.2935 0.0060 0.9559
vn -0.9077 0.0632 -0.4148
vn -0.9079 0.0632 -0.4145
vn -0.9077 0.0632 -0.4149
vn -0.5400 -0.1406 0.8298
vn -0.8368 -0.2143 0.5039
vn -0.5776 0.1874 -0.7946
vn 0.3574 0.4742 -0.8046
vn 0.3328 0.4629 -0.8216
vn 0.3271 0.4602 -0.8254
vn 0.8228 0.4243 -0.3781
vn -0.9489 -0.1171 0.2930
vn -0.9656 -0.1307 0.2249
vn -0.9468 -0.1156 0.3004
vn 0.8335 0.2854 0.4731
vn -0.9541 -0.1312 -0.2693
vn -0.9338 -0.1181 -0.3377
vn -0.9314 -0.1167 -0.3448
vn -0.2921 -0.0568 -0.9547
vn -0.2967 -0.0565 -0.9533
vn -0.2915 -0.0569 -0.9549
vn 0.2897 0.0029 -0.9571
vn 0.3333 0.0152 -0.9427
vn 0.3393 0.0169 -0.9405
vn 0.9548 0.0827 -0.2856
vn 0.9715 0.0742 -0.2250
vn 0.9524 0.0837 -0.2930
vn 0.9606 0.0741 0.2680
vn 0.9402 0.0829 0.3304
vn 0.9374 0.0840 0.3378
vn 0.2262 -0.0019 0.9741
vn -0.2630 -0.0543 0.9633
vn -0.3296 -0.0500 0.9428
vn -0.3374 -0.0496 0.9401
vn -0.5316 -0.7084 0.4643
vn -0.5328 -0.7092 0.4616
vn -0.5315 -0.7083 0.4645
vn -0.0766 0.2769 0.9578
vn -0.7464 0.6569 0.1067
vn -0.7603 0.6189 0.1972
vn -0.3382 0.2103 -0.9173
vn -0.7088 -0.6916 -0.1391
vn 0.3285 0.8576 -0.3957
vn 0.3307 0.8590 -0.3909
vn 0.3309 0.8591 -0.3904
vn -0.2001 0.3509 -0.9148
vn -0.5422 -0.1626 -0.8244
vn 0.5620 0.8042 0.1936
vn -0.1714 -0.9653 0.1970
vn -0.1370 -0.9831 0.1217
vn -0.1785 -0.9608 0.2123
vn 0.0474 -0.2743 0.9605
vn 0.4220 0.2384 0.8747
vn 0.5312 0.3474 -0.7727
vn 0.5290 0.3795 -0.7590
vn 0.5287 0.3838 -0.7571
vn -0.1571 -0.2398 0.9580
vn -0.1602 -0.1451 0.9764
vn 0.5150 0.8445 -0.1471
vn 0.3718 0.8169 0.4411
vn 0.3428 0.8042 0.4856
vn 0.3373 0.8013 0.4941
vn 0.0565 -0.9077 -0.4158
vn 0.0969 0.2343 0.9673
vn 0.7232 -0.6903 -0.0212
vn 0.7175 -0.6966 -0.0048
vn 0.7235 -0.6900 -0.0221
vn 0.2996 -0.4110 -0.8610
vn 0.4270 -0.7307 0.5327
vn -0.5990 0.7950 0.0958
vn -0.5986 0.7955 0.0943
vn -0.5985 0.7956 0.0940
vn -0.5560 0.2510 0.7924
vn -0.2093 -0.2645 0.9414
vn -0.3401 0.8047 -0.4867
vn 0.6321 -0.1886 -0.7516
vn 0.2845 0.3038 -0.9093
vn 0.3547 0.6065 -0.7115
vn 0.9516 -0.0938 -0.2928
vn 0.7232 0.4257 0.5438
vn 0.3389 -0.4690 0.8156
vn -0.3549 -0.6066 0.7114
vn -0.5116 0.0758 0.8558
vn 0.2239 0.9027 -0.3673
vn 0.3323 0.8802 0.3389
vn 0.8734 0.4232 0.2411
vn 0.6286 0.0190 0.7775
vn 0.0877 0.4759 0.8751
vn -0.3666 -0.0734 0.9275
vn -0.2238 -0.9028 0.3673
vn -0.7649 -0.4458 0.4650
vn -0.0877 -0.4758 -0.8751
vn 0.8815 -0.4703 0.0414
vn 0.6214 -0.3569 0.6975
vn -0.3775 -0.3610 0.8528
vn 0.1524 0.1008 0.9832
vn -0.2507 0.6344 0.7312
vn -0.8815 0.4703 -0.0416
vn -0.0915 0.8185 -0.5672
vn -0.1523 -0.1007 -0.9832
vn -0.8368 -0.0564 0.5445
vn 0.0158 0.2646 0.9642
vn -0.0657 -0.4379 0.8966
vn -0.3285 -0.3812 -0.8641
vn -0.1622 -0.9290 0.3327
vn -0.2798 -0.8979 -0.3398
vn -0.2717 -0.8930 0.3588
vn -0.2473 -0.8958 -0.3693
vn 0.4570 -0.8159 -0.3543
vn 0.4471 -0.8150 0.3686
vn -0.7855 -0.5159 0.3417
vn 0.6645 0.5200 0.5368
vn -0.3251 0.1516 -0.9335
vn 0.4613 0.4002 -0.7918
vn 0.3397 -0.0238 -0.9402
vn -0.2396 0.0515 -0.9695
vn 0.9253 -0.0862 0.3693
vn 0.9519 -0.1036 -0.2882
vn -0.4007 0.0584 0.9143
vn -0.9079 0.0632 -0.4144
vn 0.3649 0.4778 -0.7991
vn -0.9671 -0.1322 0.2173
vn -0.9560 -0.1326 -0.2617
vn -0.2972 -0.0565 -0.9531
vn 0.2843 0.0013 -0.9587
vn 0.9732 0.0733 -0.2181
vn 0.9626 0.0731 0.2608
vn 0.2195 -0.0038 0.9756
vn -0.2553 -0.0546 0.9653
vn -0.5329 -0.7093 0.4614
vn 0.3283 0.8575 -0.3961
vn -0.1331 -0.9846 0.1132
vn 0.5316 0.3409 -0.7753
vn 0.3822 0.8209 0.4243
vn 0.7172 -0.6968 -0.0042
vn -0.5991 0.7949 0.0959
s 1
f 26//1 3//1 4//2
f 24//3 14//3 2//3
f 1//4 26//4 4//4
f 24//5 3//5 25//6
f 1//7 4//7 7//7
f 3//8 5//8 6//8
f 3//9 7//9 4//9
f 2//10 14//10 5//10
f 5//11 14//11 8//11
f 1//12 7//12 10//12
f 5//13 9//13 6//13
f 6//14 10//14 7//14
f 10//15 12//15 13//16
f 8//17 14//17 11//17
f 1//18 10//18 13//18
f 8//19 12//19 9//19
f 13//20 16//20 17//21
f 11//22 14//22 15//22
f 1//23 13//23 17//23
f 11//24 16//24 12//25
f 16//26 20//26 17//27
f 15//28 14//28 18//28
f 1//29 17//29 20//29
f 15//30 19//31 16//31
f 19//32 23//32 20//32
f 18//33 14//33 21//33
f 1//34 20//34 23//34
f 18//35 22//35 19//36
f 22//37 26//37 23//37
f 21//38 14//38 24//38
f 1//39 23//39 26//39
f 22//40 24//41 25//40
f 52//42 29//43 30//44
f 50//45 40//45 28//45
f 27//46 52//46 30//46
f 51//47 28//48 29//47
f 27//49 30//49 33//49
f 28//50 32//50 29//51
f 30//52 32//52 33//52
f 28//53 40//53 31//53
f 31//54 40//54 34//54
f 27//55 33//55 36//55
f 32//56 34//56 35//56
f 33//57 35//57 36//58
f 36//59 38//60 39//61
f 34//62 40//62 37//62
f 27//63 36//63 39//63
f 34//64 38//64 35//65
f 39//66 42//66 43//66
f 37//67 40//67 41//67
f 27//68 39//68 43//68
f 37//69 42//70 38//70
f 42//71 46//71 43//72
f 41//73 40//73 44//73
f 27//74 43//74 46//74
f 41//75 45//75 42//76
f 46//77 48//77 49//78
f 44//79 40//79 47//79
f 27//80 46//80 49//80
f 45//81 47//81 48//81
f 48//82 52//82 49//82
f 47//83 40//83 50//83
f 27//84 49//84 52//84
f 47//85 51//85 48//85
f 78//86 55//86 56//87
f 76//88 66//88 54//88
f 53//89 78//89 56//89
f 77//90 54//90 55//91
f 53//92 56//92 59//92
f 54//93 58//93 55//94
f 56//95 58//95 59//95
f 54//96 66//96 57//96
f 57//97 66//97 60//97
f 53//98 59//98 62//98
f 57//99 61//99 58//100
f 58//101 62//101 59//101
f 62//102 64//102 65//103
f 60//104 66//104 63//104
f 53//105 62//105 65//105
f 60//106 64//106 61//107
f 65//108 68//108 69//108
f 63//109 66//109 67//109
f 53//110 65//110 69//110
f 63//111 68//111 64//112
f 68//113 72//113 69//114
f 67//115 66//115 70//115
f 53//116 69//116 72//116
f 67//117 71//117 68//117
f 71//118 75//119 72//119
f 70//120 66//120 73//120
f 53//121 72//121 75//121
f 71//122 73//122 74//123
f 75//124 77//124 78//125
f 73//126 66//126 76//126
f 53//127 75//127 78//127
f 73//128 77//128 74//128
f 81//129 140//129 102//129
f 143//130 89//130 99//130
f 89//131 135//131 99//131
f 104//132 146//132 114//132
f 114//133 146//133 91//133
f 107//134 134//134 148//134
f 79//135 139//136 102//137
f 141//138 146//138 103//138
f 103//139 145//139 141//139
f 80//140 150//140 138//140
f 107//141 149//141 144//141
f 144//142 103//142 107//142
f 103//143 134//143 107//143
f 84//144 117//144 116//144
f 116//145 89//145 84//145
f 93//146 140//146 142//146
f 110//147 115//147 142//147
f 80//148 114//148 92//148
f 93//149 142//149 94//149
f 93//150 94//150 140//150
f 90//151 94//151 125//151
f 90//152 145//153 140//154
f 101//155 150//155 111//155
f 113//156 150//156 80//156
f 112//157 153//158 110//159
f 102//160 140//160 145//160
f 102//161 122//161 81//161
f 114//162 138//162 104//162
f 91//163 146//163 141//163
f 148//164 134//164 106//164
f 102//165 144//165 79//165
f 108//166 144//167 149//168
f 101//169 138//169 150//169
f 132//170 108//171 133//172
f 106//173 117//174 147//175
f 133//176 84//177 132//178
f 85//179 106//179 134//179
f 117//180 105//181 147//182
f 124//183 83//183 98//184
f 82//185 94//185 127//185
f 82//186 127//186 126//186
f 82//187 126//187 125//187
f 82//188 125//188 94//188
f 119//189 83//189 95//190
f 120//191 83//192 96//193
f 121//194 83//194 97//195
f 118//196 84//197 89//198
f 81//199 142//200 140//201
f 134//202 86//203 85//204
f 85//205 116//205 117//205
f 86//206 116//206 85//206
f 115//207 92//208 142//209
f 86//210 104//210 138//210
f 136//211 86//212 138//213
f 80//214 138//214 114//214
f 122//215 139//215 101//215
f 102//216 139//216 122//216
f 132//217 118//217 79//217
f 116//218 135//218 89//218
f 89//219 143//219 118//219
f 116//220 100//221 135//222
f 87//223 139//224 137//225
f 101//226 136//227 138//228
f 88//229 118//230 143//231
f 139//136 88//232 137//233
f 126//234 141//235 125//236
f 90//237 140//237 94//237
f 125//238 141//238 90//238
f 126//239 114//239 91//239
f 126//240 92//241 114//242
f 127//243 142//243 92//243
f 99//244 124//245 143//246
f 94//247 142//247 127//247
f 119//248 99//249 135//250
f 100//251 119//252 135//253
f 120//254 100//255 136//256
f 87//257 120//258 136//259
f 121//260 87//261 137//262
f 88//232 121//263 137//233
f 124//264 88//265 143//266
f 128//267 133//268 129//269
f 145//270 144//270 102//270
f 146//271 134//271 103//271
f 103//272 144//272 145//272
f 104//273 134//273 146//273
f 128//274 147//274 105//274
f 128//275 107//276 148//277
f 128//278 148//278 106//278
f 106//279 147//279 128//279
f 129//280 149//280 107//280
f 151//281 101//282 111//283
f 129//284 133//284 108//284
f 108//285 149//285 129//285
f 153//286 80//287 115//288
f 122//289 151//289 109//289
f 109//290 81//290 122//290
f 110//159 153//158 115//291
f 152//292 110//293 81//294
f 111//295 150//295 123//295
f 152//296 81//296 109//296
f 130//297 123//298 131//299
f 113//300 123//300 150//300
f 130//301 151//301 111//301
f 130//302 112//303 152//304
f 130//305 152//305 109//305
f 109//306 151//306 130//306
f 131//307 153//307 112//307
f 131//308 123//308 113//308
f 113//309 153//309 131//309
f 26//1 25//1 3//1
f 24//5 2//310 3//5
f 3//8 2//8 5//8
f 3//9 6//311 7//9
f 5//13 8//312 9//13
f 6//14 9//14 10//14
f 10//15 9//313 12//15
f 8//19 11//19 12//19
f 13//20 12//314 16//20
f 11//24 15//315 16//24
f 16//26 19//26 20//26
f 15//30 18//31 19//31
f 19//32 22//32 23//32
f 18//35 21//35 22//35
f 22//37 25//37 26//37
f 22//40 21//41 24//41
f 52//42 51//43 29//43
f 51//47 50//48 28//48
f 28//50 31//316 32//50
f 30//52 29//52 32//52
f 32//56 31//317 34//56
f 33//57 32//318 35//57
f 36//59 35//319 38//60
f 34//64 37//320 38//64
f 39//66 38//66 42//66
f 37//69 41//321 42//70
f 42//71 45//322 46//71
f 41//75 44//323 45//75
f 46//77 45//77 48//77
f 45//81 44//81 47//81
f 48//82 51//324 52//82
f 47//85 50//85 51//85
f 78//86 77//86 55//86
f 77//90 76//90 54//90
f 54//93 57//325 58//93
f 56//95 55//95 58//95
f 57//99 60//326 61//99
f 58//101 61//101 62//101
f 62//102 61//327 64//102
f 60//106 63//328 64//106
f 65//108 64//108 68//108
f 63//111 67//329 68//111
f 68//113 71//330 72//113
f 67//117 70//117 71//117
f 71//118 74//118 75//119
f 71//122 70//331 73//122
f 75//124 74//332 77//124
f 73//128 76//128 77//128
f 90//152 141//333 145//153
f 108//166 79//334 144//167
f 132//170 79//335 108//171
f 106//173 85//336 117//174
f 133//176 105//337 84//177
f 117//180 84//338 105//181
f 124//183 95//339 83//183
f 119//189 96//340 83//189
f 120//191 97//341 83//192
f 121//194 98//342 83//194
f 118//196 132//343 84//197
f 81//199 110//344 142//200
f 134//202 104//345 86//203
f 115//207 80//346 92//208
f 136//211 100//347 86//212
f 116//220 86//348 100//221
f 87//223 101//349 139//224
f 101//226 87//350 136//227
f 88//229 79//351 118//230
f 139//136 79//135 88//232
f 126//234 91//352 141//235
f 126//240 127//353 92//241
f 99//244 95//354 124//245
f 119//248 95//355 99//249
f 100//251 96//356 119//252
f 120//254 96//357 100//255
f 87//257 97//358 120//258
f 121//260 97//359 87//261
f 88//232 98//360 121//263
f 124//264 98//361 88//265
f 128//267 105//362 133//268
f 128//275 129//363 107//276
f 151//281 122//364 101//282
f 153//286 113//365 80//287
f 152//292 112//366 110//293
f 130//297 111//367 123//298
f 130//302 131//368 112//303
